<svg width="26" height="26" viewBox="0 0 26 26" fill="none" xmlns="http://www.w3.org/2000/svg">
<circle cx="12.5099" cy="12.5099" r="4" transform="rotate(-45 12.5099 12.5099)" fill="#9D9D9D"/>
<circle cx="12.51" cy="4.50995" r="1" fill="#9D9D9D"/>
<circle cx="23.5656" cy="7.84375" r="1" transform="rotate(-45 23.5656 7.84375)" fill="#9D9D9D"/>
<circle cx="20.51" cy="12.5099" r="1" fill="#9D9D9D"/>
<circle cx="17.1762" cy="23.5656" r="1" transform="rotate(-45 17.1762 23.5656)" fill="#9D9D9D"/>
<circle cx="4.51001" cy="12.5099" r="1" fill="#9D9D9D"/>
<circle cx="7.8439" cy="1.45435" r="1" transform="rotate(-45 7.8439 1.45435)" fill="#9D9D9D"/>
<circle cx="12.51" cy="20.5099" r="1" fill="#9D9D9D"/>
<circle cx="1.4545" cy="17.1761" r="1" transform="rotate(-45 1.4545 17.1761)" fill="#9D9D9D"/>
<circle cx="17.0797" cy="1.41422" r="1" transform="rotate(-45 17.0797 1.41422)" fill="#9D9D9D"/>
<circle cx="23.6059" cy="17.0798" r="1" transform="rotate(-45 23.6059 17.0798)" fill="#9D9D9D"/>
<circle cx="1.41421" cy="7.94016" r="1" transform="rotate(-45 1.41421 7.94016)" fill="#9D9D9D"/>
<circle cx="7.94009" cy="23.6057" r="1" transform="rotate(-45 7.94009 23.6057)" fill="#9D9D9D"/>
<circle cx="18.1621" cy="6.8482" r="1" transform="rotate(45 18.1621 6.8482)" fill="#9D9D9D"/>
<circle cx="18.1719" cy="18.1619" r="1" transform="rotate(45 18.1719 18.1619)" fill="#9D9D9D"/>
<circle cx="6.84814" cy="6.858" r="1" transform="rotate(45 6.84814 6.858)" fill="#9D9D9D"/>
<circle cx="6.85791" cy="18.1717" r="1" transform="rotate(45 6.85791 18.1717)" fill="#9D9D9D"/>
</svg>
